HIERARCHY
ROOT Torso
{
	OFFSET 0.000000 0.000000 0.000000
	CHANNELS 6 Xposition Yposition Zposition Zrotation Yrotation Xrotation
	JOINT LHip
	{
		OFFSET 0.000000 -0.010000 -0.060000
		CHANNELS 6 Xposition Yposition Zposition Zrotation Yrotation Xrotation
		JOINT LeftThigh
		{
			OFFSET 0.055000 0.000000 -0.055000
			CHANNELS 6 Xposition Yposition Zposition Zrotation Yrotation Xrotation
			JOINT LeftLeg
			{
				OFFSET 0.000000 0.015000 -0.120000
				CHANNELS 6 Xposition Yposition Zposition Zrotation Yrotation Xrotation
				JOINT LeftFoot
				{
					OFFSET 0.000000 -0.010000 -0.100000
					CHANNELS 6 Xposition Yposition Zposition Zrotation Yrotation Xrotation
					End Site
					{
						OFFSET 0.000000 0.090000 -0.035000
					}
				}
			}
		}
	}
	JOINT RHip
	{
		OFFSET 0.000000 -0.010000 -0.060000
		CHANNELS 6 Xposition Yposition Zposition Zrotation Yrotation Xrotation
		JOINT RightThigh
		{
			OFFSET -0.055000 0.000000 -0.055000
			CHANNELS 6 Xposition Yposition Zposition Zrotation Yrotation Xrotation
			JOINT RightLeg
			{
				OFFSET 0.000000 0.015000 -0.120000
				CHANNELS 6 Xposition Yposition Zposition Zrotation Yrotation Xrotation
				JOINT RightFoot
				{
					OFFSET 0.000000 -0.010000 -0.100000
					CHANNELS 6 Xposition Yposition Zposition Zrotation Yrotation Xrotation
					End Site
					{
						OFFSET 0.000000 0.090000 -0.035000
					}
				}
			}
		}
	}
	JOINT Neck
	{
		OFFSET 0.000000 -0.000000 0.040000
		CHANNELS 6 Xposition Yposition Zposition Zrotation Yrotation Xrotation
		JOINT Head
		{
			OFFSET 0.000000 -0.000000 0.100000
			CHANNELS 6 Xposition Yposition Zposition Zrotation Yrotation Xrotation
			End Site
			{
				OFFSET 0.000000 -0.000000 0.070000
			}
		}
	}
	JOINT LeftUpperarm
	{
		OFFSET 0.098000 -0.000000 0.075000
		CHANNELS 6 Xposition Yposition Zposition Zrotation Yrotation Xrotation
		JOINT LeftLowerarm
		{
			OFFSET 0.000000 0.090000 0.009000
			CHANNELS 6 Xposition Yposition Zposition Zrotation Yrotation Xrotation
			End Site
			{
				OFFSET 0.000000 0.105000 0.000000
			}
		}
	}
	JOINT RightUpperarm
	{
		OFFSET -0.098000 -0.000000 0.075000
		CHANNELS 6 Xposition Yposition Zposition Zrotation Yrotation Xrotation
		JOINT RightLowerarm
		{
			OFFSET 0.000000 0.090000 0.009000
			CHANNELS 6 Xposition Yposition Zposition Zrotation Yrotation Xrotation
			End Site
			{
				OFFSET 0.000000 0.105000 0.000000
			}
		}
	}
}
MOTION
Frames: 13
Frame Time: 0.041667
0.000000 0.000000 0.000000 172.761234 2.563166 -15.924832 0.000000 -0.010000 -0.060000 -47.736957 16.935439 35.109915 0.055000 0.000000 -0.055000 -119.706469 -12.811298 29.723795 -0.000000 0.015000 -0.120000 -0.927910 -0.332667 -38.680635 -0.000000 -0.010000 -0.100000 -11.967532 157.272919 -11.896160 -0.000000 -0.010000 -0.060000 49.634684 -15.298335 36.229892 -0.055000 0.000000 -0.055000 136.652524 22.932449 20.284852 -0.000000 0.015000 -0.120000 0.945580 -1.683224 -8.080543 0.000000 -0.010000 -0.100000 2.560757 -156.995204 -15.736788 -0.000000 -0.000000 0.040000 7.492984 -6.883568 14.398764 0.000000 -0.000000 0.100000 6.114761 0.696783 -2.718544 0.098000 -0.000000 0.075000 145.359703 3.196661 -128.998491 0.000000 0.090000 0.009000 -1.381268 -1.047810 24.293841 -0.098000 -0.000000 0.075000 -125.551144 10.209020 -117.844560 -0.000000 0.090000 0.009000 -33.090880 13.382555 57.781256 
0.000000 0.000000 0.000000 172.892660 2.582015 -15.943297 0.000000 -0.010000 -0.060000 -47.728068 16.910114 35.063329 0.055000 -0.000000 -0.055000 -120.084179 -12.867982 28.202162 0.000000 0.015000 -0.120000 -0.993401 -0.300230 -35.895055 -0.000000 -0.010000 -0.100000 -11.692426 157.505433 -11.947340 0.000000 -0.010000 -0.060000 49.590203 -15.330687 36.277997 -0.055000 -0.000000 -0.055000 136.624943 22.886883 20.752020 -0.000000 0.015000 -0.120000 0.945310 -1.685725 -9.040497 -0.000000 -0.010000 -0.100000 2.811354 -156.990054 -16.251180 -0.000000 -0.000000 0.040000 7.373278 -6.853438 14.451584 -0.000000 -0.000000 0.100000 6.262837 0.643359 -2.653255 0.098000 -0.000000 0.075000 142.171494 1.390878 -128.989092 0.000000 0.090000 0.009000 0.188614 -1.372912 26.270726 -0.098000 -0.000000 0.075000 -125.527430 10.732855 -117.869995 0.000000 0.090000 0.009000 -31.737649 12.570783 56.102153 
0.000000 0.000000 0.000000 173.055957 2.607480 -15.927769 0.000000 -0.010000 -0.060000 -47.717699 16.883756 35.022082 0.055000 -0.000000 -0.055000 -120.478745 -12.927415 26.752340 -0.000000 0.015000 -0.120000 -1.051078 -0.267891 -33.199422 -0.000000 -0.010000 -0.100000 -11.439862 157.714368 -12.112590 -0.000000 -0.010000 -0.060000 49.542248 -15.366606 36.329172 -0.055000 0.000000 -0.055000 136.594836 22.846416 21.249588 -0.000000 0.015000 -0.120000 0.944532 -1.687713 -9.990612 0.000000 -0.010000 -0.100000 3.110233 -156.945972 -17.007422 -0.000000 -0.000000 0.040000 7.209817 -6.830052 14.441279 0.000000 -0.000000 0.100000 6.388459 0.601365 -2.518089 0.098000 -0.000000 0.075000 139.293539 -0.146001 -128.834703 0.000000 0.090000 0.009000 1.779552 -1.725517 28.157358 -0.098000 -0.000000 0.075000 -125.583205 11.205105 -117.867810 0.000000 0.090000 0.009000 -30.320825 11.776022 54.358815 
0.000000 0.000000 0.000000 173.207232 2.610194 -15.926405 0.000000 -0.010000 -0.060000 -47.707970 16.854651 34.982976 0.055000 0.000000 -0.055000 -120.869186 -13.030906 25.305940 -0.000000 0.015000 -0.120000 -1.104094 -0.231944 -30.652055 -0.000000 -0.010000 -0.100000 -11.165307 157.851874 -12.557164 0.000000 -0.010000 -0.060000 49.499634 -15.398233 36.372260 -0.055000 0.000000 -0.055000 136.552461 22.774009 21.672863 -0.000000 0.015000 -0.120000 0.942739 -1.689352 -10.843496 0.000000 -0.010000 -0.100000 3.355050 -156.909758 -17.687121 -0.000000 -0.000000 0.040000 7.080399 -6.775325 14.428790 -0.000000 -0.000000 0.100000 6.513320 0.536596 -2.385972 0.098000 -0.000000 0.075000 136.606078 -1.565878 -128.648553 -0.000000 0.090000 0.009000 3.491970 -2.125121 30.085163 -0.098000 -0.000000 0.075000 -125.650482 11.646379 -117.880377 -0.000000 0.090000 0.009000 -28.857081 11.003395 52.570422 
0.000000 0.000000 0.000000 173.427929 2.630139 -15.933926 0.000000 -0.010000 -0.060000 -47.699128 16.827185 34.947240 0.055000 0.000000 -0.055000 -121.248357 -13.127252 23.942907 -0.000000 0.015000 -0.120000 -1.149339 -0.194865 -28.328392 0.000000 -0.010000 -0.100000 -10.771565 158.041835 -12.814951 -0.000000 -0.010000 -0.060000 49.461993 -15.422851 36.408610 -0.055000 0.000000 -0.055000 136.508980 22.719759 21.997133 -0.000000 0.015000 -0.120000 0.941113 -1.690123 -11.553892 0.000000 -0.010000 -0.100000 3.464216 -156.913255 -18.095413 -0.000000 0.000000 0.040000 6.882187 -6.728164 14.432876 0.000000 -0.000000 0.100000 6.639623 0.462407 -2.256651 0.098000 -0.000000 0.075000 134.071983 -2.795571 -128.420465 0.000000 0.090000 0.009000 5.224475 -2.556622 31.992828 -0.098000 -0.000000 0.075000 -125.896588 12.054758 -117.896442 -0.000000 0.090000 0.009000 -27.364171 10.254477 50.754541 
0.000000 0.000000 0.000000 173.713362 2.616392 -15.938474 0.000000 -0.010000 -0.060000 -47.691342 16.799795 34.918973 0.055000 0.000000 -0.055000 -121.710392 -13.253567 22.706467 0.000000 0.015000 -0.120000 -1.187293 -0.156002 -26.261726 -0.000000 -0.010000 -0.100000 -10.500406 158.110710 -13.683487 0.000000 -0.010000 -0.060000 49.432548 -15.440554 36.435508 -0.055000 0.000000 -0.055000 136.452153 22.636067 22.219181 -0.000000 0.015000 -0.120000 0.938967 -1.692168 -12.113621 0.000000 -0.010000 -0.100000 3.513603 -156.913624 -18.498017 -0.000000 0.000000 0.040000 6.640756 -6.640635 14.430989 0.000000 -0.000000 0.100000 6.738840 0.409848 -2.127048 0.098000 -0.000000 0.075000 131.768938 -3.848355 -128.142600 -0.000000 0.090000 0.009000 7.016638 -3.023835 33.929026 -0.098000 -0.000000 0.075000 -126.240665 12.383654 -117.946780 -0.000000 0.090000 0.009000 -25.833614 9.533564 48.927425 
0.000000 0.000000 0.000000 174.035092 2.597751 -15.956124 0.000000 -0.010000 -0.060000 -47.686120 16.772542 34.894911 0.055000 0.000000 -0.055000 -122.151636 -13.394907 21.606214 0.000000 0.015000 -0.120000 -1.217386 -0.118306 -24.462348 -0.000000 -0.010000 -0.100000 -10.439534 158.067626 -15.165400 0.000000 -0.010000 -0.060000 49.409660 -15.450733 36.454007 -0.055000 0.000000 -0.055000 136.391419 22.557275 22.343676 0.000000 0.015000 -0.120000 0.937022 -1.695302 -12.550359 0.000000 -0.010000 -0.100000 3.483974 -156.910031 -18.934319 0.000000 -0.000000 0.040000 6.387736 -6.532228 14.460948 0.000000 -0.000000 0.100000 6.844058 0.347790 -2.021403 0.098000 -0.000000 0.075000 129.676606 -4.726531 -127.860991 0.000000 0.090000 0.009000 8.860305 -3.526272 35.891305 -0.098000 -0.000000 0.075000 -126.753271 12.670648 -118.032800 0.000000 0.090000 0.009000 -24.231109 8.823996 47.074839 
0.000000 0.000000 0.000000 174.374183 2.601076 -15.941462 0.000000 -0.010000 -0.060000 -47.682114 16.745949 34.874283 0.055000 0.000000 -0.055000 -122.439228 -13.540009 20.677880 0.000000 0.015000 -0.120000 -1.239220 -0.088061 -22.901324 -0.000000 -0.010000 -0.100000 -10.651396 157.942988 -17.055524 -0.000000 -0.010000 -0.060000 49.384573 -15.463360 36.475532 -0.055000 0.000000 -0.055000 136.357651 22.492679 22.493939 0.000000 0.015000 -0.120000 0.934842 -1.698905 -12.922624 0.000000 -0.010000 -0.100000 3.432998 -156.901084 -19.410098 -0.000000 -0.000000 0.040000 6.119500 -6.467982 14.459666 -0.000000 -0.000000 0.100000 6.944884 0.306558 -1.928155 0.098000 -0.000000 0.075000 127.744700 -5.396909 -127.564014 0.000000 0.090000 0.009000 10.713067 -4.053684 37.832179 -0.098000 -0.000000 0.075000 -127.356786 12.886135 -118.111579 -0.000000 0.090000 0.009000 -22.520375 8.119234 45.184905 
0.000000 0.000000 0.000000 174.708972 2.578518 -15.953934 -0.000000 -0.010000 -0.060000 -47.679495 16.723800 34.851484 0.055000 -0.000000 -0.055000 -122.700687 -13.703626 19.855811 0.000000 0.015000 -0.120000 -1.256495 -0.064260 -21.539507 -0.000000 -0.010000 -0.100000 -10.899538 157.796522 -18.914575 -0.000000 -0.010000 -0.060000 49.367818 -15.467278 36.493762 -0.055000 0.000000 -0.055000 136.315686 22.407573 22.616225 -0.000000 0.015000 -0.120000 0.933066 -1.702817 -13.282882 0.000000 -0.010000 -0.100000 3.329748 -156.898967 -19.792174 -0.000000 -0.000000 0.040000 5.830039 -6.454980 14.498685 0.000000 -0.000000 0.100000 7.058437 0.352286 -1.866116 0.098000 -0.000000 0.075000 126.081003 -5.836392 -127.228994 0.000000 0.090000 0.009000 12.436513 -4.568334 39.703575 -0.098000 -0.000000 0.075000 -128.067741 13.046903 -118.232774 0.000000 0.090000 0.009000 -20.703564 7.433119 43.225655 
0.000000 0.000000 0.000000 174.992561 2.559296 -15.958414 -0.000000 -0.010000 -0.060000 -47.678614 16.701778 34.830338 0.055000 0.000000 -0.055000 -122.874010 -13.885279 19.115753 0.000000 0.015000 -0.120000 -1.271029 -0.044385 -20.337486 -0.000000 -0.010000 -0.100000 -11.143432 157.652254 -20.677614 0.000000 -0.010000 -0.060000 49.348267 -15.484117 36.524375 -0.055000 0.000000 -0.055000 136.402484 22.281105 22.863374 -0.000000 0.015000 -0.120000 0.931651 -1.706897 -13.690024 0.000000 -0.010000 -0.100000 3.099436 -156.899199 -20.018386 0.000000 0.000000 0.040000 5.590243 -6.446876 14.547159 -0.000000 -0.000000 0.100000 7.171945 0.386816 -1.794918 0.098000 -0.000000 0.075000 124.620230 -6.136829 -126.921335 0.000000 0.090000 0.009000 14.166541 -5.107779 41.564450 -0.098000 -0.000000 0.075000 -128.895847 13.088131 -118.351114 -0.000000 0.090000 0.009000 -18.749433 6.754214 41.217740 
0.000000 0.000000 0.000000 175.254553 2.552860 -15.961633 -0.000000 -0.010000 -0.060000 -47.682684 16.678077 34.807436 0.055000 0.000000 -0.055000 -123.058234 -14.029866 18.446326 0.000000 0.015000 -0.120000 -1.283341 -0.028983 -19.246431 0.000000 -0.010000 -0.100000 -11.316917 157.541332 -22.146134 -0.000000 -0.010000 -0.060000 49.328999 -15.507881 36.565165 -0.055000 0.000000 -0.055000 136.614985 22.139233 23.232666 0.000000 0.015000 -0.120000 0.930839 -1.710732 -14.193897 -0.000000 -0.010000 -0.100000 2.756605 -156.896262 -20.252699 -0.000000 0.000000 0.040000 5.391245 -6.462070 14.600774 0.000000 -0.000000 0.100000 7.271857 0.424583 -1.759629 0.098000 -0.000000 0.075000 123.382272 -6.246489 -126.575126 0.000000 0.090000 0.009000 15.784594 -5.631541 43.316916 -0.098000 -0.000000 0.075000 -129.921686 13.016738 -118.489589 -0.000000 0.090000 0.009000 -16.654996 6.097868 39.175612 
0.000000 0.000000 0.000000 175.526846 2.554641 -15.939437 -0.000000 -0.010000 -0.060000 -47.689405 16.652104 34.784685 0.055000 0.000000 -0.055000 -123.233647 -14.151363 17.869151 0.000000 0.015000 -0.120000 -1.292542 -0.018419 -18.243982 -0.000000 -0.010000 -0.100000 -11.416333 157.461678 -23.314159 0.000000 -0.010000 -0.060000 49.304762 -15.542794 36.620073 -0.055000 0.000000 -0.055000 136.920062 21.979663 23.767419 0.000000 0.015000 -0.120000 0.929879 -1.714019 -14.820761 0.000000 -0.010000 -0.100000 2.376910 -156.891986 -20.559503 -0.000000 -0.000000 0.040000 5.181926 -6.469239 14.621637 0.000000 -0.000000 0.100000 7.370502 0.448215 -1.693714 0.098000 -0.000000 0.075000 122.227191 -6.234289 -126.213235 0.000000 0.090000 0.009000 17.353704 -6.166941 45.026178 -0.098000 -0.000000 0.075000 -131.210161 12.779670 -118.656560 0.000000 0.090000 0.009000 -14.445905 5.470182 37.116573 
0.000000 0.000000 0.000000 175.781038 2.548212 -15.934987 0.000000 -0.010000 -0.060000 -47.695798 16.630375 34.762080 0.055000 0.000000 -0.055000 -123.440861 -14.240524 17.342868 -0.000000 0.015000 -0.120000 -1.301360 -0.013399 -17.320632 -0.000000 -0.010000 -0.100000 -11.363794 157.435232 -23.905601 -0.000000 -0.010000 -0.060000 49.274405 -15.582295 36.679315 -0.055000 0.000000 -0.055000 137.145923 21.836284 24.356108 -0.000000 0.015000 -0.120000 0.929026 -1.714071 -15.585558 0.000000 -0.010000 -0.100000 2.056801 -156.860595 -20.922345 -0.000000 0.000000 0.040000 5.004233 -6.473287 14.682443 0.000000 -0.000000 0.100000 7.484387 0.459914 -1.675737 0.098000 -0.000000 0.075000 121.184932 -6.161801 -125.896096 0.000000 0.090000 0.009000 18.891600 -6.718147 46.726373 -0.098000 -0.000000 0.075000 -132.811348 12.355250 -118.859307 -0.000000 0.090000 0.009000 -12.066548 4.858104 34.956375 
